<svg id="Layer_1" data-name="Layer 1" xmlns="http://www.w3.org/2000/svg" viewBox="0 0 252 58"><defs><style>.cls-1{fill:#fff;}</style></defs><title>logo-web-meta</title><polygon class="cls-1" points="0 0 24.07 0 32.5 32.98 41.05 0 66.14 0 66.14 58 50.12 58 50.12 19.02 39.99 58 25.18 58 15.14 19.96 14.97 58 0 58 0 0"/><polygon class="cls-1" points="76.03 0 125.05 0 125.05 13 95.05 13 95.05 20.98 123.07 20.98 123.07 34 94.99 34 94.99 43.96 126 43.96 126 58 76.03 58 76.03 0"/><polygon class="cls-1" points="135.07 0 190.03 0 190.03 14.91 172.09 14.91 172.09 58 153.01 58 153.01 14.98 135.07 14.98 135.07 0"/><path class="cls-1" d="M230.91,0H210L187.89,58H208l2-9h19.91L232,58h20ZM214,36l6-18,6,18Z"/></svg>