<svg id="Layer_1" data-name="Layer 1" xmlns="http://www.w3.org/2000/svg" viewBox="0 0 500 500"><defs><style>.cls-1{fill:#005d05;}.cls-2{fill:#fedd00;}</style></defs><title>flash-sale</title><circle class="cls-1" cx="250" cy="250" r="250"/><path class="cls-2" d="M210.48,46.76H337.93a1.37,1.37,0,0,1,.45.07c2.3.76,21.82,7.92,11.54,28.49-10.6,21.2-41,81.16-42.76,84.68a1.49,1.49,0,0,1-.2.29c-1.11,1.26-9.83,11.63,5.16,11.63h87.12a1.5,1.5,0,0,1,.47.08c2.55.92,24.72,9.74,6.49,33.52-17.5,22.83-171.51,203.54-200.33,237.33a29.25,29.25,0,0,1-17.62,10.07c-8.11,1.27-17.51-.75-20.25-15.47a36.13,36.13,0,0,1,.82-16.31c10.65-38.32,35.78-144.22,35.78-144.22s1.68-7.56-8.4-7.56H97.49s-24.36-.42,0-40.74,97-172.2,97-172.2A17.49,17.49,0,0,1,210.48,46.76Z"/></svg>