<svg id="Layer_1" data-name="Layer 1" xmlns="http://www.w3.org/2000/svg" viewBox="0 0 500 500"><defs><style>.cls-1{fill:#c6f7ff;}.cls-2{fill:blue;}.cls-3{fill:#fff;}</style></defs><title>icon may lanh</title><circle class="cls-1" cx="250" cy="250" r="250"/><path class="cls-2" d="M342.64,271.65a3.09,3.09,0,0,1-3.09-3.1c0-1.05,0-2.08,0-3.09,0-2.17,0-4.22,0-6.27a15.4,15.4,0,0,0-12.45-15,22.43,22.43,0,0,0-4.29-.26h-.13l-30.74,0q-18,0-36.1,0a7.59,7.59,0,0,1-6.42-3.12c-15.62-19.43-35.41-29.29-58.8-29.29-2.16,0-4.39.09-6.62.25-25.63,2-45.69,14.51-59.6,37.35a18,18,0,0,1-1.14,1.62l-.43.57a3.08,3.08,0,0,1-2.5,1.28,3.15,3.15,0,0,1-1-.15,3.1,3.1,0,0,1-2.14-3V146.65a3.18,3.18,0,0,1,.4-1.53,9,9,0,0,1,8.22-4.77c.34,0,.68,0,1,0,.75.06,1.57.09,2.58.09l2.2,0c.82,0,1.67,0,2.53,0a3.1,3.1,0,0,1,3.1,3.1v3.24c0,3.33,0,6.65,0,10,0,7.51,0,15.28,0,22.92,0,8.1,4.67,14.18,12.06,15.86a21.54,21.54,0,0,0,4.59.36q58.2,0,116.4,0h75.78c10.17,0,16.52-6.35,16.57-16.57,0-7.51,0-15.16,0-22.55,0-3.28,0-13.12,0-13.12a3.09,3.09,0,0,1,3.1-3.09c1.05,0,2.09,0,3.11,0s2.09,0,3.12,0c1.72,0,3.14.06,4.45.17,3.24.28,5.68,2.86,6.2,6.56a12.91,12.91,0,0,1,.08,2v24.94q0,35.22,0,70.46c0,13.14-8.42,23.76-20.93,26.42a28.81,28.81,0,0,1-5.62.58c-1.9,0-3.79,0-5.71,0Z"/><path class="cls-2" d="M189.73,359.65a72.54,72.54,0,0,1-72-64.59,8.52,8.52,0,0,0-.22-1.1c-.06-.26-.13-.51-.18-.77a2.88,2.88,0,0,1-.07-.65V281.4a3.05,3.05,0,0,1,.06-.6c.26-1.33.49-2.67.73-4,.51-3,1-6,1.88-9,8.75-31.86,37.08-53.26,70.5-53.26.9,0,1.8,0,2.7,0,32.82,1.15,61.38,25.7,67.9,58.39a72.68,72.68,0,0,1-71.26,86.74Zm-18-42.44a3,3,0,0,1,.73.09,3.08,3.08,0,0,1,2.33,2.53c.27,1.72.52,3.37.76,5,.56,3.66,1.08,7.11,1.66,10.53.31,1.84,1.16,1.84,1.52,1.84a2.69,2.69,0,0,0,.4,0,1.18,1.18,0,0,0,.84-.42,2.77,2.77,0,0,0,.24-1.92c-.48-3.11-1-6.21-1.47-9.32-.68-4.31-1.36-8.62-2-12.93-.24-1.63-.38-3.7.74-5.34,2.33-3.41,4.73-6.69,7.27-10.16q1.26-1.72,2.54-3.49a3.12,3.12,0,0,1,2.51-1.27h0a3.08,3.08,0,0,1,2.5,1.27q1.35,1.86,2.61,3.64c1.92,2.69,3.73,5.23,5.66,7.63a10.46,10.46,0,0,1,2.14,9c-1.08,6.11-2.14,12.75-3.32,20.88a3,3,0,0,0,.23,2.08,1.3,1.3,0,0,0,.89.37l.32,0c.42,0,1.22,0,1.58-2.27.57-3.5,2.42-14.94,2.42-14.94a3.11,3.11,0,0,1,2.29-2.5,3.32,3.32,0,0,1,.77-.1,3.09,3.09,0,0,1,2.43,1.19l.77,1c.45.57.8,1,1.13,1.47.77,1,1.52,2.08,2.27,3.13,1.44,2,2.92,4.05,4.42,6a2,2,0,0,0,1.4.89,1.49,1.49,0,0,0,.84-.3c1.14-.78.41-2.09.16-2.48s-.65-.92-1-1.37l-.57-.76-6.85-9.46a3.1,3.1,0,0,1,2.51-4.91,3.87,3.87,0,0,1,.48,0l8,1.25c.86.13,1.71.28,2.56.42,1.68.28,3.41.57,5.1.78a2.92,2.92,0,0,0,.51,0c1.53,0,1.67-.87,1.72-1.15.08-.55.24-1.55-1.79-1.89-3.69-.61-7.38-1.19-11.07-1.78s-7.27-1.15-10.91-1.75l-.34,0c-1.48-.24-3.52-.56-4.8-2.19-2.57-3.3-5-6.63-7.5-10.15-.85-1.17-1.7-2.36-2.58-3.56a3.09,3.09,0,0,1,1.55-4.76l4.13-1.37c3.67-1.21,7.13-2.37,10.7-3.4a8.58,8.58,0,0,1,2.42-.33,8.79,8.79,0,0,1,3.76.81c6.73,3.26,13.47,6.74,20,10.1l.17.08a3.42,3.42,0,0,0,1.52.49,1.53,1.53,0,0,0,1.39-1.5,2.11,2.11,0,0,0-1.23-1.57c-3.07-1.62-6.15-3.18-9.41-4.84l-4.32-2.19a3.09,3.09,0,0,1,.21-5.61l.72-.32c.49-.21.85-.36,1.22-.48l4.42-1.46c2.36-.77,4.73-1.55,7.09-2.34s1.88-1.82,1.74-2.22a1.25,1.25,0,0,0-1.39-.9,3.94,3.94,0,0,0-1.2.21c-2.17.68-4.33,1.38-6.49,2.07L227,273.78a12.69,12.69,0,0,1-1.56.38l-.86.19a3.21,3.21,0,0,1-.68.07,3.09,3.09,0,0,1-2.76-4.5l1.93-3.78c1.67-3.26,3.25-6.35,4.76-9.45a4.62,4.62,0,0,0,.64-2c-.05-.73-.33-1-1.08-1.17a3.36,3.36,0,0,0-.51-.05c-.33,0-.82,0-1.37,1.08l-2.67,5.17c-2.32,4.47-4.71,9.09-6.87,13.69a11.33,11.33,0,0,1-7.81,6.58c-2.89.77-5.74,1.73-8.75,2.74-1.33.45-2.67.9-4,1.34a3.09,3.09,0,0,1-4.05-2.94c0-1.49,0-2.94,0-4.37,0-3.9,0-7.59.08-11.32a8.79,8.79,0,0,1,2.32-5.53c3.34-3.45,6.79-6.9,10.13-10.23,2-2,4-4,5.95-6,1.56-1.57.9-2.26.55-2.63a1.41,1.41,0,0,0-.93-.53,3.06,3.06,0,0,0-1.79,1c-1.8,1.77-3.59,3.57-5.37,5.36-1.31,1.31-2.62,2.63-3.94,3.93a10.39,10.39,0,0,1-1.39,1.11l-.65.47a3.1,3.1,0,0,1-4.95-2.48v-7.51c0-.69,0-1.37,0-2.06,0-1.69,0-3.29-.06-4.89a1.39,1.39,0,0,0-1.4-1.46h0a1.48,1.48,0,0,0-1.53,1.4c-.1,1.49-.08,3-.06,4.6,0,.68,0,1.36,0,2v8.38a3.08,3.08,0,0,1-1.92,2.86,3,3,0,0,1-1.17.24,3.09,3.09,0,0,1-2.2-.92l-3.22-3.26c-2.7-2.74-5.26-5.33-7.81-7.84a4.37,4.37,0,0,0-1.57-1.13,1.92,1.92,0,0,0-.5-.08c-.17,0-.58,0-1.07.77-.26.4-.61.95.55,2.11,2.54,2.57,5.1,5.12,7.65,7.68,3,3,6,6,9,9a6.5,6.5,0,0,1,2.22,4.37c.08,4.17.07,8.28.06,12.63v4.19a3.08,3.08,0,0,1-3.1,3.09,3.08,3.08,0,0,1-.94-.15l-4.08-1.29c-3.75-1.18-7.29-2.3-10.86-3.57a8.72,8.72,0,0,1-4.54-3.92c-2.08-3.91-4.11-7.91-6.08-11.77-1.52-3-3-6-4.59-8.93-.26-.52-.72-1.13-1.38-1.13a1.82,1.82,0,0,0-.81.23c-.82.44-1,1.19-.48,2.24,1.24,2.55,2.56,5.13,3.84,7.62q1.1,2.14,2.18,4.3a14.76,14.76,0,0,1,.69,1.65l.32.8a3.09,3.09,0,0,1-3.68,4.14l-.75-.19c-.48-.13-.83-.22-1.19-.33l-3.88-1.26c-2.74-.89-5.56-1.81-8.35-2.64a1.61,1.61,0,0,0-.52-.08,1.51,1.51,0,0,0-.41,2.91,8.32,8.32,0,0,0,1.23.42l.83.26,12.14,4a3.09,3.09,0,0,1,.51,5.66l-1.13.62c-.68.37-1.22.67-1.77.95-1.1.56-2.2,1.11-3.31,1.65-2.63,1.31-5.12,2.54-7.54,3.95a1.7,1.7,0,0,0-.44,3.19.19.19,0,0,0,.17.06,2.84,2.84,0,0,0,1.25-.38l6.56-3.34q7.1-3.61,14.19-7.2l.16-.08a7,7,0,0,1,3.23-1,4.37,4.37,0,0,1,1.21.17c4.16,1.27,8.22,2.61,12.5,4l3.81,1.25a3.09,3.09,0,0,1,1.54,4.76l-2.67,3.65c-2.14,2.91-4.15,5.65-6.06,8.46a8.85,8.85,0,0,1-6.43,3.9c-7.66,1.13-15.31,2.37-22.44,3.54a1.53,1.53,0,0,0-1.46,1.55,1.46,1.46,0,0,0,1.1,1.38l.42,0a15.49,15.49,0,0,0,2.08-.22l10.11-1.58,4.13-.65a2.59,2.59,0,0,1,.48,0,3.09,3.09,0,0,1,2.57,4.83l-.64.95c-.39.59-.72,1.07-1.06,1.54-.78,1.09-1.57,2.16-2.36,3.24-1.4,1.91-2.79,3.82-4.16,5.75-1.23,1.73-.29,2.41,0,2.64a1.4,1.4,0,0,0,.81.31,2.54,2.54,0,0,0,1.71-1.2c.72-.94,1.42-1.91,2.11-2.87.37-.53.75-1.05,1.13-1.57l5.06-6.92A3.1,3.1,0,0,1,171.73,317.21Z"/><path class="cls-2" d="M154,192.84c-8.64,0-13.6-4.9-13.61-13.45q0-13.75,0-27.52v-7.18a7.29,7.29,0,0,1,.09-1l.06-.43a3.1,3.1,0,0,1,3.07-2.7H356.34a3.1,3.1,0,0,1,3.09,2.93c0,.28,0,.55.05.82,0,.65.08,1.26.09,1.88v3.09q0,15,0,30.09c0,8.57-5,13.48-13.59,13.48H154Zm22.08-18.44q-9.12,0-18.22,0c-2,0-2,1-2.05,1.41,0,1.33,1.3,1.59,2.1,1.62H340.57c1.95,0,3-.38,3.36-.73.05-.06.22-.23.21-.87s0-1.46-3.48-1.46Zm165.31-15.55c.34,0,.67,0,1,0,.5,0,1.67-.22,1.71-1.42s-.88-1.51-1.68-1.57c-.22,0-.45,0-.67,0H159.42c-2.53,0-3.25.59-3.37.71s-.21.22-.2.84,0,1.46,3.47,1.46H341.43Z"/><path class="cls-2" d="M268.79,271.7c-3.29,0-5.21-1.42-6.2-4.6-1.16-3.76-2.53-7.41-4-11.28-.57-1.53-1.15-3.07-1.71-4.63a3.09,3.09,0,0,1,.3-2.74,3.15,3.15,0,0,1,2.37-1.41l.39,0a15.5,15.5,0,0,1,1.71-.11h61.51c8.05,0,13.13,5,13.28,13,0,1.85,0,3.7,0,5.66,0,.91,0,1.85,0,2.82a3.1,3.1,0,0,1-3,3.09l-1,.06c-.7,0-1.31.07-1.91.07H307.13q-19.14,0-38.3,0Z"/><path class="cls-2" d="M282.48,359.54a7.63,7.63,0,0,1-.82,0c-3.43-.3-7-2.9-6.89-9.29v-.15a20.94,20.94,0,0,1,6.47-13.34c1.84-1.78,2.77-3.43,2.77-4.89s-1-3.18-2.84-5a21,21,0,0,1-6.5-15.08A20.73,20.73,0,0,1,281,296.85c2-1.94,2.83-3.57,3-5.62a7.63,7.63,0,0,1,7.63-7.29q.33,0,.66,0c4.22.36,7.12,3.74,7,8.21a20.51,20.51,0,0,1-6.56,14.73c-1.76,1.72-2.65,3.35-2.65,4.87s.86,3.05,2.54,4.66a20.77,20.77,0,0,1,0,30.73,7.46,7.46,0,0,0-2.51,4.87C289.65,356.59,286.66,359.54,282.48,359.54Z"/><path class="cls-2" d="M314.86,359.54c-.23,0-.47,0-.7,0a7.6,7.6,0,0,1-7-8,20.51,20.51,0,0,1,6.45-14.78c1.87-1.83,2.81-3.51,2.81-5s-.95-3.14-2.81-5a20.67,20.67,0,0,1,0-30.14,8,8,0,0,0,2.8-5.44,7.67,7.67,0,0,1,7.64-7.32l.58,0a7.73,7.73,0,0,1,7.12,8.17,20.51,20.51,0,0,1-6.54,14.75c-1.78,1.74-2.68,3.37-2.68,4.86s.91,3.12,2.69,4.85a20.62,20.62,0,0,1,6.55,15.32A20,20,0,0,1,325.19,347a7.88,7.88,0,0,0-2.72,5.45A7.44,7.44,0,0,1,314.86,359.54Z"/><path class="cls-2" d="M342.64,359.53a5.33,5.33,0,0,1-.56,0,7.46,7.46,0,0,1-7.1-7.84,20.27,20.27,0,0,1,6.38-14.83c1.89-1.87,2.85-3.56,2.84-5s-1-3.2-2.91-5.1a20.66,20.66,0,0,1,0-29.95,8.26,8.26,0,0,0,2.9-5.65,7.65,7.65,0,0,1,7.62-7.17h.4a7.67,7.67,0,0,1,7.28,8.07,20.44,20.44,0,0,1-6.48,14.78c-1.83,1.8-2.76,3.46-2.76,4.92s1,3.16,2.84,5a20.46,20.46,0,0,1,6.42,15.09,20,20,0,0,1-6.5,15.11,7.71,7.71,0,0,0-2.77,5.4A7.45,7.45,0,0,1,342.64,359.53Z"/><path class="cls-3" d="M120.32,146.65a6,6,0,0,1,6.31-3.17c2.41.19,4.85,0,7.55,0v3.24c0,11-.05,22,0,32.92.07,9.6,5.64,16.85,14.47,18.86A23.79,23.79,0,0,0,154,199q96.09,0,192.18,0c11.91,0,19.6-7.68,19.66-19.65.06-10.8,0-21.61,0-32.41v-3.28c3.58,0,7-.21,10.41.09,2,.17,3.12,1.87,3.4,3.9a13.6,13.6,0,0,1,.05,2q0,47.47,0,95c0,11.72-7.39,21-18.49,23.39a26.41,26.41,0,0,1-5,.52c-4.37.07-8.75,0-13.51,0,0-3.27.07-6.36,0-9.44a18.47,18.47,0,0,0-14.92-18,25.63,25.63,0,0,0-5-.33q-33.42,0-66.84,0a4.56,4.56,0,0,1-4-2c-17.49-21.75-40.31-32.28-68.06-30.18-27.13,2-47.82,15.52-62,38.82-.43.69-1,1.32-1.43,2Zm226.92,80.28a4.71,4.71,0,0,0-4.57-4.73,4.61,4.61,0,0,0-4.6,4.39,4.44,4.44,0,0,0,4.38,4.79A4.58,4.58,0,0,0,347.24,226.93Zm14-4.74a4.77,4.77,0,0,0-4.69,4.64,4.61,4.61,0,0,0,4.45,4.55,4.54,4.54,0,0,0,4.79-4.44A4.71,4.71,0,0,0,361.2,222.19Z"/><path class="cls-3" d="M120.32,281.4c.83-4.29,1.4-8.65,2.55-12.84,8.6-31.31,37.28-52.09,70.11-50.94,31.42,1.09,58.73,24.59,65,55.89a69.47,69.47,0,1,1-137.18,21.2c-.08-.73-.3-1.45-.45-2.17Zm69.47,14c3,4.06,5.51,7.85,8.36,11.39a7.39,7.39,0,0,1,1.51,6.51c-1.24,7-2.33,14-3.34,21-.51,3.48,1,5.67,3.86,6s4.72-1.4,5.28-4.83c.77-4.81,1.55-9.61,2.42-14.94.84,1.07,1.36,1.7,1.84,2.35,2.24,3.07,4.42,6.18,6.72,9.2,1.74,2.29,4.33,2.74,6.46,1.27s2.59-4.27,1-6.72c-.5-.78-1.08-1.5-1.63-2.25l-6.85-9.47,8,1.25c2.58.41,5.16.89,7.75,1.22,3,.38,5.27-1.15,5.67-3.72.44-2.77-1.17-4.89-4.33-5.41-7.32-1.21-14.66-2.32-22-3.53-1.12-.19-2.62-.35-3.21-1.1-3.4-4.36-6.57-8.89-10-13.62,5.15-1.68,9.9-3.34,14.74-4.74a6,6,0,0,1,4,.3c6.75,3.27,13.42,6.71,20.09,10.14,2,1,3.84,1.27,5.67-.16,2.74-2.14,2.21-6.13-1.12-7.9-4.44-2.36-8.94-4.59-13.77-7.06.84-.35,1.26-.57,1.71-.72,3.84-1.27,7.69-2.51,11.53-3.8,3.18-1.08,4.59-3.47,3.68-6.14s-3.39-3.61-6.45-2.65c-3.78,1.18-7.54,2.42-11.32,3.62-.56.18-1.16.27-2.16.49,2.4-4.71,4.61-9,6.71-13.28a7.51,7.51,0,0,0,.94-3.58,4.13,4.13,0,0,0-3.6-4,4.5,4.5,0,0,0-5.2,2.66c-3.22,6.31-6.58,12.55-9.59,19a8.15,8.15,0,0,1-5.8,4.9c-4.27,1.14-8.45,2.67-12.94,4.13,0-5.48-.1-10.54.06-15.59a5.7,5.7,0,0,1,1.45-3.47c5.28-5.46,10.72-10.78,16.06-16.18,2.33-2.35,2.5-4.94.59-6.94s-4.67-2-7.12.42c-3.14,3.08-6.21,6.21-9.33,9.3a17.54,17.54,0,0,1-1.71,1.3c0-2.8,0-5.16,0-7.51s.07-4.74-.05-7.09a4.48,4.48,0,0,0-4.35-4.41,4.56,4.56,0,0,0-4.76,4.29c-.15,2.27-.05,4.56-.05,6.84,0,2.55,0,5.11,0,8.38-4-4.09-7.52-7.65-11.06-11.13a7.32,7.32,0,0,0-2.9-1.9,4.26,4.26,0,0,0-5,2c-1.24,1.94-.93,4,1,5.95,5.52,5.58,11.11,11.1,16.63,16.68a4,4,0,0,1,1.32,2.26c.12,5.48.06,11,.06,16.75-5.12-1.64-10-3.11-14.85-4.82a5.73,5.73,0,0,1-2.84-2.46c-3.63-6.85-7.06-13.81-10.65-20.69-1.4-2.68-4-3.47-6.39-2.2s-3.07,3.73-1.81,6.33c1.94,4,4,8,6,12,.31.62.52,1.28.89,2.21-.85-.23-1.33-.33-1.8-.48-4.09-1.31-8.17-2.68-12.28-3.92a4.47,4.47,0,0,0-5.65,2.95,4.53,4.53,0,0,0,2.53,5.67,21.61,21.61,0,0,0,2.39.8l12.15,4c-1.26.68-2,1.13-2.84,1.53-3.68,1.88-7.44,3.61-11,5.69-1.25.73-2.66,2.2-2.83,3.5a6.27,6.27,0,0,0,1.62,4.39c1.34,1.55,3.35,1.32,5.15.41,6.91-3.51,13.82-7.05,20.74-10.54.72-.36,1.67-.88,2.31-.69,5.37,1.64,10.69,3.43,16.25,5.25-3.09,4.26-6.05,8.15-8.79,12.2a5.66,5.66,0,0,1-4.32,2.56c-7.51,1.12-15,2.32-22.49,3.55a4.6,4.6,0,0,0-4.05,4.73,4.53,4.53,0,0,0,3.89,4.34,13.8,13.8,0,0,0,3.26-.22c4.63-.7,9.24-1.45,14.26-2.24-.7,1.05-1.15,1.75-1.63,2.42-2.18,3-4.4,6-6.55,9-1.82,2.58-1.5,5.32.73,6.93s4.84,1.06,6.8-1.51c1.13-1.47,2.19-3,3.28-4.5l5.06-6.91c.87,5.62,1.6,10.59,2.43,15.54.53,3.17,2.62,4.78,5.43,4.36s4.17-2.68,3.68-5.87c-1.15-7.42-2.36-14.82-3.48-22.24A5,5,0,0,1,180,309C183.11,304.46,186.38,300.08,189.79,295.39Z"/><path class="cls-3" d="M143.66,143.65H356.34c.05.9.13,1.72.13,2.53q0,16.59,0,33.17c0,6.89-3.56,10.4-10.49,10.4H154c-6.95,0-10.51-3.5-10.52-10.36q0-17.35,0-34.7C143.53,144.45,143.59,144.2,143.66,143.65ZM250,171.3H194.85q-18.48,0-36.95,0c-3.1,0-5.05,1.77-5.15,4.4s2,4.68,5.06,4.83c.51,0,1,0,1.52,0H340.57c4.46,0,6.72-1.61,6.67-4.74s-2.2-4.5-6.58-4.51Zm-.09-9.36h90.11c.85,0,1.69,0,2.53,0a4.57,4.57,0,0,0,4.64-4.39,4.63,4.63,0,0,0-4.54-4.78c-.67-.05-1.35,0-2,0H159.42c-4.48,0-6.72,1.58-6.67,4.7s2.19,4.51,6.57,4.51Z"/><path class="cls-3" d="M333.38,268.43c-1.15.06-2,.13-2.8.13-20.58,0-41.17,0-61.76,0-1.89,0-2.66-.47-3.27-2.42-1.67-5.36-3.75-10.6-5.74-16.05.47,0,1.17-.13,1.87-.13q30.75,0,61.51,0c6.33,0,10.07,3.69,10.19,10C333.43,262.7,333.38,265.39,333.38,268.43Z"/><path class="cls-3" d="M277.86,350.28a17.73,17.73,0,0,1,5.54-11.34c5-4.84,4.93-9.45-.07-14.35a17.57,17.57,0,0,1-.13-25.53,11.31,11.31,0,0,0,3.89-7.64,4.57,4.57,0,0,1,4.93-4.37c2.55.22,4.26,2.25,4.21,5.08a17.42,17.42,0,0,1-5.63,12.56c-4.74,4.62-4.78,9.47-.1,14,7.76,7.49,7.79,18.73,0,26.27a10.51,10.51,0,0,0-3.45,6.8c-.31,3.21-2.23,4.93-5.07,4.68C279.31,356.18,277.77,354.16,277.86,350.28Z"/><path class="cls-3" d="M328.67,331.9a17,17,0,0,1-5.58,12.83,10.91,10.91,0,0,0-3.71,7.47,4.4,4.4,0,0,1-5,4.22,4.46,4.46,0,0,1-4.13-4.83A17.4,17.4,0,0,1,315.79,339c5-4.89,5-9.49,0-14.36a17.56,17.56,0,0,1,0-25.7,11,11,0,0,0,3.73-7.45,4.59,4.59,0,1,1,9.15.61,17.46,17.46,0,0,1-5.6,12.58c-4.82,4.71-4.82,9.46,0,14.16A17.48,17.48,0,0,1,328.67,331.9Z"/><path class="cls-3" d="M356.46,331.82a17,17,0,0,1-5.52,12.85,10.76,10.76,0,0,0-3.74,7.44,4.57,4.57,0,0,1-9.13-.44A17.23,17.23,0,0,1,343.53,339c5.05-5,5-9.52-.07-14.53a17.57,17.57,0,0,1,0-25.53,11.31,11.31,0,0,0,3.83-7.68A4.52,4.52,0,0,1,352.1,287a4.62,4.62,0,0,1,4.34,4.95,17.38,17.38,0,0,1-5.54,12.6C346,309.45,346,314,351,318.93A17.49,17.49,0,0,1,356.46,331.82Z"/></svg>