<svg id="Layer_1" data-name="Layer 1" xmlns="http://www.w3.org/2000/svg" viewBox="0 0 500 500"><defs><style>.cls-1{fill:#00aae7;}.cls-2{fill:#fff;}</style></defs><title>quat-lam-mat</title><circle class="cls-1" cx="250" cy="250" r="250"/><path class="cls-2" d="M260.81,58.41c8.83,1.55,17.92,2.22,26.45,4.78,56.64,17,92.37,54.27,103.09,112.57,13.33,72.49-30.91,141.24-101.54,161-80.23,22.48-163.34-30.13-177.34-112.26C99.44,154,140.37,86.58,208.77,65c9.56-3,19.75-4,29.65-6,1-.19,1.93-.42,2.89-.64ZM251,326.94A126.78,126.78,0,1,0,124.28,200,126.73,126.73,0,0,0,251,326.94Z"/><path class="cls-2" d="M250.82,442.41H175.49c-7.34,0-10-2.64-10-9.85,0-4.87-.09-9.74.05-14.61.35-12.44,10.39-22.7,22.83-22.74q62.78-.19,125.56,0c12.42,0,22.39,10.34,22.73,22.83.13,5,.07,10,0,15,0,6.52-2.86,9.36-9.38,9.36Q289,442.43,250.82,442.41Zm6.85-23.63a6.56,6.56,0,1,0-6.49,6.4A6.53,6.53,0,0,0,257.67,418.78Zm-27.69,0a6.53,6.53,0,0,0-6.44-6.42,6.42,6.42,0,1,0,0,12.83A6.58,6.58,0,0,0,230,418.78Zm55.36,0a6.56,6.56,0,1,0-6.48,6.41A6.53,6.53,0,0,0,285.34,418.77Z"/><path class="cls-2" d="M214.62,386.31c8.34-11.43,12.63-23.67,12.15-36.77h47.86c1.09,6,1.63,12.64,3.62,18.83s5.45,11.92,8.31,17.94Z"/><path class="cls-2" d="M295.38,202.32c22.08,2.4,40.68,10.34,54,27.91,8.65,11.39,9.37,23.92,2.58,36.57a49,49,0,0,1-20.84,20.89c-9.89,5.1-18,2.49-23.13-7.44-2.54-5-4.53-10.25-6.61-15.45-6.1-15.34-9.38-19.89-22.18-30.2C288.93,226.25,294.3,215.61,295.38,202.32Z"/><path class="cls-2" d="M267.11,159.31c-12.64-4.14-24.32-3.71-36.63,2.34-2-6.39-4.35-12.39-5.82-18.6a71,71,0,0,1,.12-33.42c5.51-22.78,22.78-33.65,45.64-28.32a58,58,0,0,1,15.61,6c10.3,5.92,12.06,14.75,5.6,24.71a81.58,81.58,0,0,1-5.28,7.27C276.87,131,267.31,142.62,267.11,159.31Z"/><path class="cls-2" d="M207.66,207.37c2.52,12.87,8.91,22.77,19.71,30.16-.92,1.43-1.68,2.83-2.63,4.08-10.17,13.28-23.19,22.65-39.24,27.34-22.8,6.65-40.88-3.64-47.53-26.74-1.87-6.5-3.14-13.1-1.69-19.93,1.58-7.48,6.67-12.3,14.29-12.36a109.59,109.59,0,0,1,16.35,1.42C180.73,213.33,194.44,214.87,207.66,207.37Z"/><path class="cls-2" d="M286.68,202c-1.36,20.22-18,35.38-37.38,34-20.16-1.48-34.8-18.24-33.43-38.27,1.3-19,18.48-33.89,37.55-32.63C272.75,166.32,287.94,183.2,286.68,202Z"/><path class="cls-2" d="M251.27,311.91a112.35,112.35,0,0,1-50.48-12.09c-4.13-2.07-5.76-5.36-4.67-9.09a7.07,7.07,0,0,1,7.59-5.34,14.88,14.88,0,0,1,4.56,1.53c26.21,12.47,52.8,13.5,79.81,2.76,5.32-2.11,9.5-.66,11.2,3.79,1.62,4.23-.52,8-5.68,10.12A111.81,111.81,0,0,1,251.27,311.91Z"/><path class="cls-2" d="M140.77,186.2A111.48,111.48,0,0,1,190,107.5c4.59-3,9-2.6,11.55,1.13s1.45,8-3.15,11.13c-22.86,15.49-37,36.73-42.11,63.88-.35,1.83-.51,3.71-.91,5.54-1,4.61-4.37,7.11-8.56,6.45C142.83,195,140.47,191.7,140.77,186.2Z"/><path class="cls-2" d="M362.61,196.53a7.19,7.19,0,0,1-6.89,6.77c-4.49.3-7.63-2.57-8-7.49-1.89-27.21-12.74-50.05-33.21-68.2-1.59-1.41-3.29-2.68-4.93-4-4-3.31-4.74-7.63-1.87-11.12,2.7-3.29,7.11-3.6,11-.59a110.64,110.64,0,0,1,36.56,48.87A114,114,0,0,1,362.61,196.53Z"/></svg>