<svg id="Layer_1" data-name="Layer 1" xmlns="http://www.w3.org/2000/svg" viewBox="0 0 500 500"><defs><style>.cls-1{fill:#1789f3;}.cls-2{fill:#fff;}</style></defs><title>giam-gia</title><circle class="cls-1" cx="250" cy="250" r="250"/><path class="cls-2" d="M150.37,376.84h-4.78q-32.68,0-65.39,0c-18.36,0-29.59-11.27-29.61-29.65q0-25.05,0-50.1c0-7.57,1.91-10,9.23-12,16.21-4.47,27-18.41,27.05-34.87,0-16.68-10.76-30.58-27.27-35.12-7-1.92-9-4.51-9-11.78q0-25.48,0-51c.06-17.54,11.44-28.93,29-29,22.07-.06,44.15,0,66.23,0,1.37,0,2.75.12,4.56.22v8.27c0,11.89-.05,23.78,0,35.67,0,6.1,3.79,10.18,9,10.11s8.93-4.15,9-10.27c0-13,0-26,0-39.07v-4.94h5.45c81.66,0,163.33.24,245-.19,17.94-.09,31.14,12.43,30.56,30.71-.52,16.4-.09,32.83-.11,49.25,0,7.53-2,10-9.27,12-16.16,4.42-27,18.42-27,34.9a36,36,0,0,0,26.89,35c7.57,2.09,9.4,4.46,9.41,12.32,0,16.85.05,33.69,0,50.53-.07,17.56-11.45,28.95-29,29q-123.78,0-247.55,0h-4.31V372c0-13.44,0-26.89,0-40.33,0-4.86-2.92-8.48-7.09-9.35a8.71,8.71,0,0,0-10.08,5.16,16.82,16.82,0,0,0-.81,5.81c-.07,12.73,0,25.47,0,38.21ZM349.49,197.67c.07-5.82-1.94-8.55-5.33-10.3s-6.33-1-9.1,1.23a28.6,28.6,0,0,0-2.48,2.32q-52.69,52.7-105.37,105.39a21.05,21.05,0,0,0-2.8,3.18c-3.77,5.75-.14,13.69,6.7,13.75a13,13,0,0,0,8.12-3.55c9-8.56,17.71-17.51,26.52-26.32q39.63-39.63,79.21-79.31C347.13,201.88,348.58,199,349.49,197.67Zm-99.55-19.9a27.24,27.24,0,0,0-27.12,26.94,27.16,27.16,0,1,0,54.32.27A27.1,27.1,0,0,0,249.94,177.77Zm99.57,117.51A27.29,27.29,0,0,0,322.6,268.1c-14.78-.13-27.4,12.43-27.37,27.26a27.3,27.3,0,0,0,27.46,27.05A27,27,0,0,0,349.51,295.28Zm-181.1-13.11c0-4.38.06-8.76,0-13.13-.1-5.85-3.65-9.69-8.88-9.77-5.38-.07-9,3.58-9.11,9.46q-.16,13.13,0,26.25c.08,5.55,3.76,9.34,8.79,9.43s9-3.89,9.18-9.54C168.49,290.64,168.41,286.4,168.41,282.17Zm0-64c0-4.09,0-8.18,0-12.28,0-.28,0-.56,0-.84-.28-5.4-4-9.26-9.06-9.26s-8.84,3.77-8.92,9.28q-.21,13.13,0,26.25c.08,5.42,4,9.32,8.95,9.31s8.83-3.93,9-9.33C168.51,226.89,168.4,222.51,168.41,218.13Z"/></svg>