<svg id="Layer_1" data-name="Layer 1" xmlns="http://www.w3.org/2000/svg" viewBox="0 0 500 500"><defs><style>.cls-1{fill:#66dc1b;}.cls-2{fill:#fff;}</style></defs><title>qua-tang</title><circle class="cls-1" cx="250" cy="250" r="250"/><path class="cls-2" d="M58,232.7a5.89,5.89,0,0,0,.64-1.28c4.7-21.28,23.66-34.27,45.52-31.47,15.42,2,28.87,8.48,41.38,17.26,2.09,1.47,3.65,2.23,6.27.71s3.92-3,3.65-6.35c-1.17-14.11.09-27.95,5.65-41.16a44.32,44.32,0,0,1,2.85-5.68c1.87-3.09,4.89-4,7.66-2.46s3.47,4.42,2.2,7.8c-2.05,5.47-4.62,10.87-5.72,16.55-1.4,7.26-1.56,14.76-2.25,22.06l15.62-3.54c3-7.11,6-14.49,9.35-21.68a5.5,5.5,0,0,1,7.81-2.86c3,1.53,3.47,4.77,1.9,8.46-2.53,5.95-4.77,12-7.1,18.06-.87,2.26-.36,4,1.26,6.07,2.91,3.69,5.15,7.9,8.27,12.83,3-2.63,6.42-4.78,8.69-7.79,7.07-9.35,12.27-19.65,14-31.47,2.72-18.3-10.18-33.65-27.85-32.73-3,.16-6.08,1.24-9.05,2.13-3.82,1.15-6.8,0-8-3.24-1.11-3.11.3-5.7,4-7.3,22.13-9.64,47.94,4.79,51.74,28.83,1.66,10.47-.25,20.37-4.07,30.06-.59,1.5-1.27,3-2.16,5.06a28.69,28.69,0,0,0,2.93-1.19c9.06-5,18.09-10.11,27.16-15.12,9.92-5.49,19.19-2.84,24.77,7.07,3.19,5.65,6.33,11.33,9.49,17,6,10.91,3.57,19.77-7.26,25.81Q252.57,262.59,217.72,282a8.19,8.19,0,0,0-3.09,2.69H348.17c1.25,0,2.5-.05,3.74.05,7.71.61,13,6,13,13.74q.12,60.18,0,120.37c0,10.9-7.83,18.68-18.76,19.61-1.25.11-2.5.14-3.75.14q-91.3,0-182.62,0a32.7,32.7,0,0,1-8.16-.84c-9.15-2.42-14.68-10.25-14.7-20.58q0-42.75,0-85.5v-4.62c-9.32,5.19-18,10-26.71,14.86-3.49,1.94-6.94,4-10.51,5.74-8.16,4-17.18,1.54-21.84-6.27-4.16-7-8.1-14.07-11.85-21.26-4.33-8.31-1.5-17.5,6.78-22.25,9.31-5.35,18.75-10.48,28.12-15.71,1-.58,2-1.25,3-1.83-6.47-1.84-13-3.15-19-5.52-14.08-5.49-23.41-15.38-26.29-30.64a3.69,3.69,0,0,0-.53-1ZM218.52,296c-8,0-15.46-.1-22.93.07a12.7,12.7,0,0,0-5.63,1.49c-12.92,7.07-25.72,14.35-38.65,21.4-2.42,1.32-3.22,2.8-3.22,5.53.11,30.49.07,61,.07,91.46,0,8.47,3,11.45,11.56,11.46q27.38,0,54.73,0c1.3,0,2.61-.14,4.07-.22,0-17.93,0-35.42,0-52.9,0-4.77,2-7.3,5.57-7.33s5.66,2.46,5.67,7.2q0,21.18,0,42.36V427H272V296.21H229.77v29.08c0,6.75.06,13.5,0,20.24-.06,3.53-2.37,5.77-5.56,5.79s-5.4-2.21-5.63-5.74c-.08-1.24,0-2.5,0-3.75Zm65.21,131.17c1.06.1,1.8.24,2.53.24,19.11,0,38.22.06,57.33,0,7.18,0,10.14-3.31,10.15-10.87q0-57.7,0-115.41c0-4.8-.3-5.1-5.12-5.1H283.73ZM132,265.74c-2.71-5.78-4.78-10.44-7.09-15-.62-1.24-1.8-2.78-3-3.06-6.3-1.47-12.66-2.7-19-3.8-4.52-.78-7-3.09-6.54-6.59s3.1-5.26,7.61-4.61c7.38,1.06,14.7,2.49,21.46,3.66l11.73-11.48c-3.2-1.89-6.65-4.13-10.28-6-9.41-4.89-19.24-8.34-30.07-7.86-16.21.73-28.4,13.23-27.41,28.58.79,12.14,8.06,19.79,18.71,24.53,10.43,4.65,21.53,5.28,32.69,4.47C124.43,268.31,128,266.78,132,265.74Zm5.47,8.92c-19.82,11-39.23,21.84-58.6,32.69-3.77,2.11-4.49,4.66-2.44,8.43,3.27,6,6.65,12,10,18,2.82,5,5,5.7,10,2.95q25.67-14.28,51.32-28.61c2-1.15,4.09-2.31,6.34-3.59Zm87.09-9.36c19.85-11.06,39.24-21.82,58.59-32.67,3.85-2.16,4.46-4.74,2.25-8.78-3.16-5.8-6.41-11.55-9.64-17.31-3-5.4-5.19-6-10.53-3.07q-20.43,11.35-40.83,22.75l-16.5,9.21Zm-77.26,3.89L164,299.06l50.74-28.28L198,240.91Zm-5.5-9.83,50.77-28.3c-1.89-3.32-3.46-6.43-5.35-9.33-2.93-4.49-8.11-6.07-12.8-3.54q-17.13,9.24-34,19a9.49,9.49,0,0,0-4,12.08C137.82,252.63,139.84,255.79,141.77,259.36Z"/><path class="cls-2" d="M375.36,267.68c.49-5.7,1.14-10.55,1.21-15.4a10.75,10.75,0,0,0-1.92-6c-2.76-3.85-6-7.31-9-11-4.61-5.73-2.82-11,4.32-12.92,4.22-1.11,8.43-2.29,12.72-3.06a8.13,8.13,0,0,0,6.19-4.67c2.11-4,4.47-7.79,6.92-11.55,3.87-5.95,9.63-5.92,13.49.07,2.64,4.09,4.88,8.43,7.63,12.44a9.1,9.1,0,0,0,4.48,3.31c4.63,1.44,9.44,2.28,14.11,3.62,6.79,1.94,8.41,7,4.07,12.52-3,3.82-6.37,7.38-9.23,11.3a10.13,10.13,0,0,0-1.81,5.68c0,4.86.64,9.71,1,14.56.5,7.43-3.89,10.72-10.9,8.05-4.43-1.68-8.69-3.8-13.17-5.31a9.88,9.88,0,0,0-5.92.05c-4.59,1.55-9,3.72-13.53,5.4C379.5,277.12,375,273.69,375.36,267.68Zm27.83-54.31c-3.68,5.29-5.93,10.75-10,13.75s-9.92,3.53-14.87,5.1c3.08,4.43,7.38,8.52,9,13.48s.34,10.64.34,16.94c10.08-7.52,20.06-6.65,30.53-.53-3.91-12.4,0-21.89,9.32-30.17C415,231.3,406.84,225.57,403.19,213.37Z"/><path class="cls-2" d="M265.69,134.68c.29-3.73.4-7.49.92-11.19a8.45,8.45,0,0,0-2.49-7.4c-3.1-3.42-6-7-8.88-10.64-4.05-5.16-2.42-10.34,3.87-12.15,4.78-1.37,9.72-2.25,14.46-3.77A9.75,9.75,0,0,0,278.3,86c2.57-3.67,4.64-7.68,7-11.5,4.23-6.8,10.06-6.85,14.3-.16,3.06,4.83,5.12,11,9.4,14.16s10.59,3.13,16,4.6c7.45,2,9.05,7.07,4.17,13.13-3.06,3.79-6.33,7.41-9.25,11.3a7.92,7.92,0,0,0-1.54,4.67c.19,5,.8,9.95,1.18,14.93.57,7.32-4,10.81-10.81,8.25A73,73,0,0,1,298.42,141c-4.15-2.32-7.88-2.08-11.95.07a86.14,86.14,0,0,1-9.65,4c-7.49,2.86-11.79-.3-11.25-8.21l.15-2.24Zm51.61-32c-12.68-.55-20.35-6.93-24.81-18.42-4.3,11.79-12.38,17.77-24.92,18.42,9.68,8.19,12.71,18,9.54,30.15,10.42-6.59,20.42-6.58,30.94-.08C304.49,120.52,307.87,111,317.3,102.71Z"/><path class="cls-2" d="M382.08,117.5a28.06,28.06,0,1,1,28-28.14A28.07,28.07,0,0,1,382.08,117.5Zm-.19-44.87a16.81,16.81,0,1,0,16.95,16.8A16.78,16.78,0,0,0,381.89,72.63Z"/><path class="cls-2" d="M342.94,186.19c-.47,19.67-1.91,39.26-9.83,57.58-2.73,6.33-6.91,12.07-10.82,17.82a5.52,5.52,0,1,1-8.48-7.06c11.08-13.15,14.34-29.1,16.44-45.45,2.05-16.06,1.9-32.16.73-48.27-.06-.75-.12-1.5-.12-2.25,0-3.32,2-5.7,4.91-6a5.43,5.43,0,0,1,6.07,4.86c.61,4.82.89,9.7,1.06,14.57S342.94,181.44,342.94,186.19Z"/><path class="cls-2" d="M375.32,185.34c-4.1,0-6.58-3.49-5.49-7.65a92.8,92.8,0,0,1,14.62-30.55c12.28-17.21,28.58-28.7,49.12-34,4.77-1.24,8.45,1,8.38,5-.05,3-1.84,4.86-4.65,5.59-30.06,7.84-47.53,28.23-56.69,56.88C379.7,183.48,378,185,375.32,185.34Z"/></svg>